<?xml version="1.0" encoding="utf-8"?>
<!-- Generator: Adobe Illustrator 22.1.0, SVG Export Plug-In . SVG Version: 6.00 Build 0)  -->
<svg version="1.1" id="_x32_" xmlns="http://www.w3.org/2000/svg" xmlns:xlink="http://www.w3.org/1999/xlink" x="0px" y="0px"
	 viewBox="0 0 512 512" style="enable-background:new 0 0 512 512;" xml:space="preserve">
<path d="M455.8,411.5c1.8-2.3,3.5-4.7,5.3-7.1c2.6-3.6,5.3-7.2,7.7-10.9c0.9-1.4,1.7-2.8,2.6-4.2c9.3-14.8,17-30.6,23.1-47.2
	c0.3-0.8,0.7-1.6,1-2.4c0.2-0.4,0.3-0.9,0.4-1.3c2-5.6,3.7-11.3,5.3-17c0.5-1.9,1-3.8,1.5-5.7c1.2-5,2.4-10.1,3.3-15.2
	c0.6-3.5,1.1-7,1.6-10.4c0.5-3.9,1.2-7.7,1.5-11.6c0.7-7.8,1.2-15.6,1.2-23.4c0-7.8-0.4-15.6-1.2-23.4c-0.4-3.9-1-7.7-1.5-11.6
	c-0.5-3.5-1-7-1.6-10.4c-0.9-5.1-2.1-10.2-3.3-15.2c-0.5-1.9-1-3.8-1.5-5.7c-1.6-5.8-3.3-11.4-5.3-17c-0.2-0.4-0.3-0.9-0.4-1.3
	c-0.3-0.8-0.7-1.6-1-2.4c-6.1-16.6-13.8-32.4-23.1-47.2c-0.9-1.4-1.7-2.8-2.6-4.2c-2.4-3.7-5.1-7.3-7.7-10.9
	c-1.7-2.4-3.5-4.7-5.3-7.1c-2.6-3.3-5.2-6.5-8-9.7c-2.1-2.4-4.2-4.7-6.4-7.1c-2.8-3-5.6-6-8.5-8.8c-2.3-2.2-4.7-4.3-7.1-6.4
	c-5.6-5-11.3-9.8-17.3-14.3c-2.4-1.8-4.8-3.7-7.2-5.4c-3.4-2.4-7-4.7-10.6-6.9c-2.6-1.6-5.2-3.2-7.8-4.7c-3.6-2.1-7.3-4.2-11.1-6.1
	c-2.8-1.4-5.6-2.7-8.4-4.1c-3.8-1.8-7.5-3.6-11.3-5.1c-6.1-2.5-12.3-4.8-18.6-6.8c-3.2-1-6.4-1.8-9.7-2.7c-4.2-1.2-8.3-2.3-12.5-3.2
	c-3.1-0.7-6.3-1.3-9.5-1.9c-4.8-0.9-9.6-1.6-14.5-2.2c-2.7-0.3-5.3-0.7-8.1-1C271.6,1.5,263.9,1,256,1c0,0,0,0,0,0c0,0,0,0,0,0
	c0,0,0,0,0,0c-7.8,0-15.6,0.5-23.2,1.2c-2.7,0.2-5.4,0.6-8,1c-4.9,0.6-9.7,1.3-14.5,2.2c-3.2,0.6-6.3,1.2-9.5,1.9
	c-4.3,1-8.4,2.1-12.6,3.3c-3.2,0.9-6.4,1.7-9.6,2.7c-6.3,2-12.5,4.3-18.6,6.8c-3.8,1.6-7.5,3.3-11.2,5.1c-2.9,1.4-5.8,2.7-8.6,4.2
	c-3.7,1.9-7.3,3.9-10.9,6c-2.7,1.6-5.4,3.2-8,4.9c-3.5,2.2-7,4.4-10.4,6.8c-2.6,1.8-5.1,3.8-7.7,5.8c-5.6,4.3-11.1,8.7-16.3,13.4
	c-2.6,2.3-5.2,4.6-7.7,7c-2.8,2.8-5.5,5.7-8.2,8.6c-2.3,2.4-4.5,4.8-6.7,7.3c-2.7,3.1-5.2,6.2-7.8,9.4c-1.9,2.4-3.7,4.9-5.6,7.4
	c-2.5,3.5-5.1,7-7.5,10.6c-1.1,1.6-2,3.4-3.1,5c-5.9,9.5-11.2,19.4-15.9,29.6c-0.1,0.2-0.2,0.5-0.3,0.7c-2.3,5.2-4.3,10.5-6.3,15.8
	c-0.3,0.9-0.8,1.8-1.1,2.7c0,0,0,0,0,0c-0.2,0.5-0.3,0.9-0.4,1.4c-1.9,5.5-3.7,11.2-5.2,16.9c-0.5,1.9-1,3.8-1.5,5.8
	c-1.2,5-2.4,10.1-3.3,15.2c-0.6,3.5-1.1,6.9-1.6,10.4c-0.5,3.9-1.2,7.7-1.5,11.6C2.4,239.5,2,247.2,2,255c0,7.8,0.4,15.6,1.2,23.4
	c0.4,3.9,1,7.8,1.5,11.6c0.5,3.5,1,6.9,1.6,10.4c0.9,5.1,2.1,10.2,3.3,15.2c0.5,1.9,1,3.8,1.5,5.8c1.6,5.7,3.3,11.3,5.2,16.9
	c0.2,0.5,0.3,0.9,0.4,1.4c0,0,0,0,0,0c0.3,0.9,0.7,1.8,1.1,2.7c2,5.3,4,10.6,6.3,15.8c0.1,0.2,0.2,0.3,0.3,0.5
	c4.7,10.5,10.2,20.5,16.2,30.2c0.9,1.5,1.8,3.1,2.8,4.6c2.4,3.7,5,7.2,7.6,10.8c1.8,2.4,3.5,4.9,5.4,7.2c2.6,3.3,5.2,6.4,7.9,9.6
	c2.1,2.4,4.3,4.8,6.5,7.1c2.8,3,5.5,5.9,8.4,8.8c2.3,2.3,4.8,4.4,7.2,6.5c5.5,5,11.2,9.7,17.1,14.1c2.4,1.8,4.8,3.7,7.3,5.4
	c3.5,2.4,7,4.7,10.6,6.9c2.6,1.6,5.1,3.2,7.8,4.7c3.7,2.1,7.3,4.2,11.1,6.1c2.8,1.4,5.6,2.7,8.4,4c3.8,1.8,7.5,3.6,11.4,5.2
	c6.1,2.5,12.3,4.8,18.6,6.8c3.2,1,6.4,1.8,9.7,2.7c4.2,1.2,8.3,2.3,12.5,3.2c3.1,0.7,6.3,1.3,9.5,1.9c4.8,0.9,9.6,1.6,14.5,2.2
	c2.7,0.3,5.3,0.7,8.1,1c7.7,0.7,15.4,1.2,23.2,1.2c0,0,0,0,0,0c0,0,0,0,0,0c0,0,0,0,0,0c7.8,0,15.6-0.5,23.2-1.2
	c2.7-0.2,5.4-0.6,8.1-1c4.9-0.6,9.7-1.3,14.5-2.2c3.2-0.6,6.4-1.2,9.5-1.9c4.2-0.9,8.4-2.1,12.5-3.2c3.2-0.9,6.5-1.7,9.7-2.7
	c6.3-2,12.5-4.3,18.6-6.8c3.9-1.6,7.6-3.4,11.4-5.2c2.8-1.3,5.6-2.6,8.4-4c3.8-1.9,7.5-4,11.1-6.1c2.6-1.5,5.2-3.1,7.7-4.7
	c3.6-2.3,7.1-4.5,10.6-6.9c2.5-1.7,4.8-3.6,7.2-5.4c6-4.5,11.8-9.3,17.4-14.3c2.3-2.1,4.7-4.2,7-6.4c2.9-2.9,5.7-5.8,8.5-8.8
	c2.2-2.3,4.3-4.6,6.4-7.1C450.5,418,453.2,414.8,455.8,411.5z M417.8,379.7c-10.5,13.6-22.5,25.7-35.9,36.2
	c-0.7,0.6-1.5,1.1-2.3,1.7c-6.1,4.6-12.4,8.9-19,12.8c-0.9,0.5-1.7,1.1-2.6,1.6c-7.6,4.4-15.4,8.3-23.6,11.7
	c13.8-24.6,25.3-54.7,33.4-87.5h65.6c-4.2,7.4-9,14.4-14,21.2C419,378.2,418.4,378.9,417.8,379.7z M151.4,430.4
	c-6.6-3.9-12.9-8.2-19-12.8c-0.8-0.6-1.5-1.1-2.3-1.7c-13.4-10.5-25.4-22.6-35.9-36.2c-0.6-0.8-1.2-1.5-1.7-2.3
	c-5.1-6.7-9.8-13.8-14-21.2h63.9c7.1,32.4,17.5,61.3,30.3,85.2c-6.4-2.9-12.7-5.9-18.7-9.4C153.1,431.5,152.3,431,151.4,430.4z
	 M92.5,132.8c0.6-0.8,1.2-1.7,1.9-2.5c10.4-13.5,22.5-25.6,35.8-36.1c0.8-0.6,1.6-1.2,2.4-1.8c6-4.6,12.3-8.9,18.8-12.8
	c0.9-0.5,1.8-1.1,2.7-1.6c6-3.5,12.3-6.5,18.7-9.4c-12.7,23.9-23.2,52.8-30.3,85.2H78.5c0-0.1,0.1-0.1,0.1-0.2
	C82.8,146.4,87.5,139.4,92.5,132.8z M360.7,79.6c6.6,3.9,12.9,8.2,19,12.8c0.8,0.6,1.5,1.1,2.3,1.7c13.4,10.5,25.4,22.6,35.9,36.2
	c0.6,0.8,1.1,1.5,1.7,2.3c5.1,6.8,9.8,13.8,14,21.2h-65.6c-8.1-32.9-19.6-62.9-33.4-87.5c8.1,3.4,16,7.3,23.6,11.7
	C359,78.6,359.8,79.1,360.7,79.6z M256,459.6c-18-0.1-46.5-39.7-62.6-103.3H317C299.2,418.7,269.2,458,256,459.6z M184.3,306.7
	c-2-16.3-3.2-33.5-3.2-51.7s1.2-35.3,3.2-51.7h142.9c2.3,16.3,3.7,33.5,3.7,51.7s-1.4,35.3-3.7,51.7H184.3z M58.1,305.6
	c-1.9-7.3-3.3-14.6-4.3-21.9c-0.2-1.4-0.5-2.8-0.6-4.2c-1-8.2-1.6-16.3-1.6-24.5c0-8.2,0.6-16.4,1.6-24.5c0.2-1.4,0.4-2.8,0.6-4.2
	c1.1-7.3,2.5-14.6,4.3-21.9c0.1-0.4,0.2-0.7,0.3-1.1h76c-1.8,16.7-2.7,34-2.7,51.7c0,17.6,1,34.9,2.7,51.7h-76
	C58.3,306.3,58.2,306,58.1,305.6z M255.9,50.5c13.2,1.5,43.2,40.8,61,103.3H193.4C209.5,90.3,237.9,50.7,255.9,50.5z M377.1,203.4
	h76.6c0.1,0.4,0.2,0.7,0.3,1.1c1.9,7.2,3.3,14.5,4.3,21.9c0.2,1.4,0.5,2.8,0.6,4.2c1,8.2,1.6,16.3,1.6,24.5s-0.6,16.4-1.6,24.5
	c-0.2,1.4-0.4,2.8-0.6,4.2c-1.1,7.3-2.4,14.6-4.3,21.9c-0.1,0.4-0.2,0.7-0.3,1.1h-76.6c2.1-17,3.3-34.3,3.3-51.7
	S379.2,220.4,377.1,203.4z"/>
</svg>
